<?xml version="1.0" encoding="UTF-8" standalone="no"?>
<!DOCTYPE svg PUBLIC "-//W3C//DTD SVG 1.1//EN"
 "http://www.w3.org/Graphics/SVG/1.1/DTD/svg11.dtd">
<!-- Generated by graphviz version 2.40.1 (20161225.0304)
 -->
<!-- Title: GossipGraph Pages: 1 -->
<svg width="328pt" height="617pt"
 viewBox="0.00 0.00 328.00 617.00" xmlns="http://www.w3.org/2000/svg" xmlns:xlink="http://www.w3.org/1999/xlink">
<g id="page0,1_graph0" class="graph" transform="scale(1 1) rotate(0) translate(4 613)">
<title>GossipGraph</title>
<polygon fill="#ffffff" stroke="transparent" points="-4,4 -4,-613 324,-613 324,4 -4,4"/>
<text text-anchor="middle" x="160" y="-593.8" font-family="Times,serif" font-size="14.00" fill="#000000">b_0 is strongly seen by a_1:</text>
<text text-anchor="middle" x="160" y="-578.8" font-family="Times,serif" font-size="14.00" fill="#000000">It is seen via multiple directed paths passing</text>
<text text-anchor="middle" x="160" y="-563.8" font-family="Times,serif" font-size="14.00" fill="#000000">through a supermajority (3 out of 4) of the nodes</text>
<g id="clust2" class="cluster">
<title>cluster_bob</title>
</g>
<g id="clust3" class="cluster">
<title>cluster_carol</title>
</g>
<g id="clust4" class="cluster">
<title>cluster_dave</title>
</g>
<g id="clust1" class="cluster">
<title>cluster_alice</title>
</g>
<!-- alice -->
<g id="node1" class="node">
<title>alice</title>
<polygon fill="#add8e6" stroke="#ffffff" points="73,-36 19,-36 19,0 73,0 73,-36"/>
<text text-anchor="middle" x="46" y="-14.3" font-family="Times,serif" font-size="14.00" fill="#000000">alice</text>
</g>
<!-- a_0 -->
<g id="node2" class="node">
<title>a_0</title>
<ellipse fill="none" stroke="#000000" cx="43" cy="-90" rx="27" ry="18"/>
<text text-anchor="middle" x="43" y="-86.3" font-family="Times,serif" font-size="14.00" fill="#000000">a_0</text>
</g>
<!-- alice&#45;&gt;a_0 -->
<!-- bob -->
<g id="node5" class="node">
<title>bob</title>
<polygon fill="#add8e6" stroke="#ffffff" points="148,-36 94,-36 94,0 148,0 148,-36"/>
<text text-anchor="middle" x="121" y="-14.3" font-family="Times,serif" font-size="14.00" fill="#000000">bob</text>
</g>
<!-- alice&#45;&gt;bob -->
<!-- a_1 -->
<g id="node3" class="node">
<title>a_1</title>
<ellipse fill="#add8e6" stroke="#000000" cx="43" cy="-306" rx="27" ry="18"/>
<text text-anchor="middle" x="43" y="-302.3" font-family="Times,serif" font-size="14.00" fill="#000000">a_1</text>
</g>
<!-- a_0&#45;&gt;a_1 -->
<g id="edge2" class="edge">
<title>a_0&#45;&gt;a_1</title>
<path fill="none" stroke="#000000" d="M43,-108.0445C43,-145.6062 43,-232.4459 43,-277.5897"/>
<polygon fill="#000000" stroke="#000000" points="39.5001,-277.8549 43,-287.8549 46.5001,-277.855 39.5001,-277.8549"/>
</g>
<!-- a_2 -->
<g id="node4" class="node">
<title>a_2</title>
<ellipse fill="none" stroke="#000000" cx="43" cy="-522" rx="27" ry="18"/>
<text text-anchor="middle" x="43" y="-518.3" font-family="Times,serif" font-size="14.00" fill="#000000">a_2</text>
</g>
<!-- a_1&#45;&gt;a_2 -->
<g id="edge3" class="edge">
<title>a_1&#45;&gt;a_2</title>
<path fill="none" stroke="#000000" d="M43,-324.0445C43,-361.6062 43,-448.4459 43,-493.5897"/>
<polygon fill="#000000" stroke="#000000" points="39.5001,-493.8549 43,-503.8549 46.5001,-493.855 39.5001,-493.8549"/>
</g>
<!-- d_4 -->
<g id="node16" class="node">
<title>d_4</title>
<ellipse fill="none" stroke="#000000" cx="277" cy="-450" rx="27" ry="18"/>
<text text-anchor="middle" x="277" y="-446.3" font-family="Times,serif" font-size="14.00" fill="#000000">d_4</text>
</g>
<!-- a_1&#45;&gt;d_4 -->
<g id="edge16" class="edge">
<title>a_1&#45;&gt;d_4</title>
<path fill="none" stroke="#000000" d="M62.9507,-318.2774C104.4832,-343.8358 200.3542,-402.8334 248.4278,-432.4171"/>
<polygon fill="#000000" stroke="#000000" points="246.7488,-435.4935 257.0998,-437.7537 250.4175,-429.5319 246.7488,-435.4935"/>
</g>
<!-- b_0 -->
<g id="node6" class="node">
<title>b_0</title>
<ellipse fill="#add8e6" stroke="#000000" cx="121" cy="-90" rx="27" ry="18"/>
<text text-anchor="middle" x="121" y="-86.3" font-family="Times,serif" font-size="14.00" fill="#000000">b_0</text>
</g>
<!-- bob&#45;&gt;b_0 -->
<!-- carol -->
<g id="node9" class="node">
<title>carol</title>
<ellipse fill="#ffffff" stroke="#ffffff" cx="199" cy="-18" rx="28.6953" ry="18"/>
<text text-anchor="middle" x="199" y="-14.3" font-family="Times,serif" font-size="14.00" fill="#000000">carol</text>
</g>
<!-- bob&#45;&gt;carol -->
<!-- b_1 -->
<g id="node7" class="node">
<title>b_1</title>
<ellipse fill="#add8e6" stroke="#000000" cx="121" cy="-234" rx="27" ry="18"/>
<text text-anchor="middle" x="121" y="-230.3" font-family="Times,serif" font-size="14.00" fill="#000000">b_1</text>
</g>
<!-- b_0&#45;&gt;b_1 -->
<g id="edge5" class="edge">
<title>b_0&#45;&gt;b_1</title>
<path fill="none" stroke="#0000ff" stroke-width="2" d="M121,-108.2377C121,-132.799 121,-176.7526 121,-205.6459"/>
<polygon fill="#0000ff" stroke="#0000ff" stroke-width="2" points="117.5001,-205.9103 121,-215.9104 124.5001,-205.9104 117.5001,-205.9103"/>
</g>
<!-- d_1 -->
<g id="node13" class="node">
<title>d_1</title>
<ellipse fill="#add8e6" stroke="#000000" cx="277" cy="-162" rx="27" ry="18"/>
<text text-anchor="middle" x="277" y="-158.3" font-family="Times,serif" font-size="14.00" fill="#000000">d_1</text>
</g>
<!-- b_0&#45;&gt;d_1 -->
<g id="edge17" class="edge">
<title>b_0&#45;&gt;d_1</title>
<path fill="none" stroke="#0000ff" stroke-width="2" d="M143.351,-100.3158C170.1105,-112.6664 215.1035,-133.4324 245.4089,-147.4195"/>
<polygon fill="#0000ff" stroke="#0000ff" stroke-width="2" points="244.1441,-150.6905 254.6905,-151.7033 247.0776,-144.3348 244.1441,-150.6905"/>
</g>
<!-- b_1&#45;&gt;a_1 -->
<g id="edge18" class="edge">
<title>b_1&#45;&gt;a_1</title>
<path fill="none" stroke="#0000ff" stroke-width="2" d="M104.8383,-248.9184C93.6786,-259.2198 78.6666,-273.077 66.2285,-284.5583"/>
<polygon fill="#0000ff" stroke="#0000ff" stroke-width="2" points="63.8481,-281.9924 58.8741,-291.347 68.5961,-287.136 63.8481,-281.9924"/>
</g>
<!-- b_2 -->
<g id="node8" class="node">
<title>b_2</title>
<ellipse fill="none" stroke="#000000" cx="121" cy="-306" rx="27" ry="18"/>
<text text-anchor="middle" x="121" y="-302.3" font-family="Times,serif" font-size="14.00" fill="#000000">b_2</text>
</g>
<!-- b_1&#45;&gt;b_2 -->
<g id="edge6" class="edge">
<title>b_1&#45;&gt;b_2</title>
<path fill="none" stroke="#000000" d="M121,-252.1686C121,-259.869 121,-269.0257 121,-277.5834"/>
<polygon fill="#000000" stroke="#000000" points="117.5001,-277.5867 121,-287.5867 124.5001,-277.5868 117.5001,-277.5867"/>
</g>
<!-- d_2 -->
<g id="node14" class="node">
<title>d_2</title>
<ellipse fill="none" stroke="#000000" cx="277" cy="-306" rx="27" ry="18"/>
<text text-anchor="middle" x="277" y="-302.3" font-family="Times,serif" font-size="14.00" fill="#000000">d_2</text>
</g>
<!-- b_1&#45;&gt;d_2 -->
<g id="edge19" class="edge">
<title>b_1&#45;&gt;d_2</title>
<path fill="none" stroke="#000000" d="M143.351,-244.3158C170.1105,-256.6664 215.1035,-277.4324 245.4089,-291.4195"/>
<polygon fill="#000000" stroke="#000000" points="244.1441,-294.6905 254.6905,-295.7033 247.0776,-288.3348 244.1441,-294.6905"/>
</g>
<!-- d_3 -->
<g id="node15" class="node">
<title>d_3</title>
<ellipse fill="none" stroke="#000000" cx="277" cy="-378" rx="27" ry="18"/>
<text text-anchor="middle" x="277" y="-374.3" font-family="Times,serif" font-size="14.00" fill="#000000">d_3</text>
</g>
<!-- b_2&#45;&gt;d_3 -->
<g id="edge20" class="edge">
<title>b_2&#45;&gt;d_3</title>
<path fill="none" stroke="#000000" d="M143.351,-316.3158C170.1105,-328.6664 215.1035,-349.4324 245.4089,-363.4195"/>
<polygon fill="#000000" stroke="#000000" points="244.1441,-366.6905 254.6905,-367.7033 247.0776,-360.3348 244.1441,-366.6905"/>
</g>
<!-- c_0 -->
<g id="node10" class="node">
<title>c_0</title>
<ellipse fill="none" stroke="#000000" cx="199" cy="-90" rx="27" ry="18"/>
<text text-anchor="middle" x="199" y="-86.3" font-family="Times,serif" font-size="14.00" fill="#000000">c_0</text>
</g>
<!-- carol&#45;&gt;c_0 -->
<!-- dave -->
<g id="node11" class="node">
<title>dave</title>
<polygon fill="#add8e6" stroke="#ffffff" points="302,-36 248,-36 248,0 302,0 302,-36"/>
<text text-anchor="middle" x="275" y="-14.3" font-family="Times,serif" font-size="14.00" fill="#000000">dave</text>
</g>
<!-- carol&#45;&gt;dave -->
<!-- c_0&#45;&gt;b_2 -->
<g id="edge21" class="edge">
<title>c_0&#45;&gt;b_2</title>
<path fill="none" stroke="#000000" d="M192.6169,-107.6762C179.0137,-145.3466 147.0889,-233.7539 130.854,-278.7119"/>
<polygon fill="#000000" stroke="#000000" points="127.4664,-277.7882 127.3619,-288.3825 134.0503,-280.1657 127.4664,-277.7882"/>
</g>
<!-- d_0 -->
<g id="node12" class="node">
<title>d_0</title>
<ellipse fill="none" stroke="#000000" cx="277" cy="-90" rx="27" ry="18"/>
<text text-anchor="middle" x="277" y="-86.3" font-family="Times,serif" font-size="14.00" fill="#000000">d_0</text>
</g>
<!-- dave&#45;&gt;d_0 -->
<!-- d_0&#45;&gt;d_1 -->
<g id="edge9" class="edge">
<title>d_0&#45;&gt;d_1</title>
<path fill="none" stroke="#000000" d="M277,-108.1686C277,-115.869 277,-125.0257 277,-133.5834"/>
<polygon fill="#000000" stroke="#000000" points="273.5001,-133.5867 277,-143.5867 280.5001,-133.5868 273.5001,-133.5867"/>
</g>
<!-- d_1&#45;&gt;b_1 -->
<g id="edge22" class="edge">
<title>d_1&#45;&gt;b_1</title>
<path fill="none" stroke="#0000ff" stroke-width="2" d="M254.649,-172.3158C227.8895,-184.6664 182.8965,-205.4324 152.5911,-219.4195"/>
<polygon fill="#0000ff" stroke="#0000ff" stroke-width="2" points="150.9224,-216.3348 143.3095,-223.7033 153.8559,-222.6905 150.9224,-216.3348"/>
</g>
<!-- d_1&#45;&gt;d_2 -->
<g id="edge10" class="edge">
<title>d_1&#45;&gt;d_2</title>
<path fill="none" stroke="#000000" d="M277,-180.2377C277,-204.799 277,-248.7526 277,-277.6459"/>
<polygon fill="#000000" stroke="#000000" points="273.5001,-277.9103 277,-287.9104 280.5001,-277.9104 273.5001,-277.9103"/>
</g>
<!-- d_2&#45;&gt;d_3 -->
<g id="edge11" class="edge">
<title>d_2&#45;&gt;d_3</title>
<path fill="none" stroke="#000000" d="M277,-324.1686C277,-331.869 277,-341.0257 277,-349.5834"/>
<polygon fill="#000000" stroke="#000000" points="273.5001,-349.5867 277,-359.5867 280.5001,-349.5868 273.5001,-349.5867"/>
</g>
<!-- d_3&#45;&gt;d_4 -->
<g id="edge12" class="edge">
<title>d_3&#45;&gt;d_4</title>
<path fill="none" stroke="#000000" d="M277,-396.1686C277,-403.869 277,-413.0257 277,-421.5834"/>
<polygon fill="#000000" stroke="#000000" points="273.5001,-421.5867 277,-431.5867 280.5001,-421.5868 273.5001,-421.5867"/>
</g>
<!-- d_4&#45;&gt;a_2 -->
<g id="edge23" class="edge">
<title>d_4&#45;&gt;a_2</title>
<path fill="none" stroke="#000000" d="M252.4002,-457.5692C210.443,-470.4791 124.9599,-496.7816 77.2089,-511.4742"/>
<polygon fill="#000000" stroke="#000000" points="76.1498,-508.138 67.6213,-514.4242 78.2085,-514.8285 76.1498,-508.138"/>
</g>
</g>
</svg>
